<mxfile host="app.diagrams.net" modified="2021-07-01T07:47:28.846Z" agent="5.0 (Macintosh; Intel Mac OS X 10_15_7) AppleWebKit/537.36 (KHTML, like Gecko) Chrome/91.0.4472.114 Safari/537.36" etag="1-got2F8AZoibRr6IqMx" version="14.8.3" type="github">
  <diagram id="s1bC5ppiXoEt5R0zqFaq" name="Page-1">
    <mxGraphModel dx="946" dy="569" grid="1" gridSize="10" guides="1" tooltips="1" connect="1" arrows="1" fold="1" page="1" pageScale="1" pageWidth="850" pageHeight="1100" math="0" shadow="0">
      <root>
        <mxCell id="0" />
        <mxCell id="1" parent="0" />
        <mxCell id="3lW47hw-iwdH1v94RYdx-1" value="App" style="rounded=0;whiteSpace=wrap;html=1;verticalAlign=top;" vertex="1" parent="1">
          <mxGeometry x="20" y="220" width="810" height="550" as="geometry" />
        </mxCell>
        <mxCell id="3lW47hw-iwdH1v94RYdx-2" value="NewTicketControl&lt;br&gt;The component will determine whether the TicketList or NewTicketForm component is showing" style="rounded=0;whiteSpace=wrap;html=1;verticalAlign=top;" vertex="1" parent="1">
          <mxGeometry x="50" y="330" width="750" height="410" as="geometry" />
        </mxCell>
        <mxCell id="3lW47hw-iwdH1v94RYdx-3" value="Header" style="rounded=0;whiteSpace=wrap;html=1;verticalAlign=middle;" vertex="1" parent="1">
          <mxGeometry x="50" y="250" width="750" height="50" as="geometry" />
        </mxCell>
        <mxCell id="3lW47hw-iwdH1v94RYdx-4" value="TicketList" style="rounded=0;whiteSpace=wrap;html=1;verticalAlign=top;" vertex="1" parent="1">
          <mxGeometry x="70" y="390" width="260" height="240" as="geometry" />
        </mxCell>
        <mxCell id="3lW47hw-iwdH1v94RYdx-5" value="NewTicketForm" style="rounded=0;whiteSpace=wrap;html=1;verticalAlign=top;" vertex="1" parent="1">
          <mxGeometry x="340" y="390" width="210" height="320" as="geometry" />
        </mxCell>
        <mxCell id="3lW47hw-iwdH1v94RYdx-6" value="Submit&lt;br&gt;Clicking this button will add a ticket and then show the TicketList component." style="rounded=0;whiteSpace=wrap;html=1;verticalAlign=top;" vertex="1" parent="1">
          <mxGeometry x="360" y="620" width="170" height="70" as="geometry" />
        </mxCell>
        <mxCell id="3lW47hw-iwdH1v94RYdx-7" value="Add Ticket&lt;br&gt;Clicking on this button will show the NewTicketForm. This button will live in the NewTicketControl component." style="rounded=0;whiteSpace=wrap;html=1;verticalAlign=top;" vertex="1" parent="1">
          <mxGeometry x="70" y="640" width="260" height="70" as="geometry" />
        </mxCell>
        <mxCell id="3lW47hw-iwdH1v94RYdx-8" value="Ticket&lt;br&gt;Clicking on a ticket will show a ticket&#39;s ticket detail." style="rounded=0;whiteSpace=wrap;html=1;verticalAlign=middle;" vertex="1" parent="1">
          <mxGeometry x="85" y="420" width="230" height="60" as="geometry" />
        </mxCell>
        <mxCell id="3lW47hw-iwdH1v94RYdx-9" value="Ticket" style="rounded=0;whiteSpace=wrap;html=1;verticalAlign=middle;" vertex="1" parent="1">
          <mxGeometry x="85" y="490" width="230" height="60" as="geometry" />
        </mxCell>
        <mxCell id="3lW47hw-iwdH1v94RYdx-10" value="Ticket" style="rounded=0;whiteSpace=wrap;html=1;verticalAlign=middle;" vertex="1" parent="1">
          <mxGeometry x="85" y="560" width="230" height="60" as="geometry" />
        </mxCell>
        <mxCell id="3lW47hw-iwdH1v94RYdx-11" value="Ticket Detail" style="rounded=0;whiteSpace=wrap;html=1;verticalAlign=top;" vertex="1" parent="1">
          <mxGeometry x="560" y="390" width="220" height="320" as="geometry" />
        </mxCell>
        <mxCell id="3lW47hw-iwdH1v94RYdx-12" value="Update/Delete&lt;br&gt;We will eventually add Update/Delete functionality" style="rounded=0;whiteSpace=wrap;html=1;verticalAlign=top;" vertex="1" parent="1">
          <mxGeometry x="575" y="620" width="190" height="70" as="geometry" />
        </mxCell>
      </root>
    </mxGraphModel>
  </diagram>
</mxfile>
